<svg version="1.1" xmlns="http://www.w3.org/2000/svg" xmlns:xlink="http://www.w3.org/1999/xlink" x="0px" y="0px" viewBox="0 0 1200 320" enable-background="new 0 0 1200 320" xml:space="preserve">
<g id="primary">
	<g>
		<path fill="#0078DC" d="M62.9,251.8c5.7,5.1,16.2,7.6,31.3,7.6c16.3,0,30.3-5.8,41.9-17.3c1.4-1.5,4.4-5,8.8-10.3l34.3,12.3    c-8.4,11.6-14.5,19.3-18.2,23.1c-18.4,18.5-40.7,27.7-66.7,27.7c-25.9,0-48.1-9.2-66.6-27.7C9.2,248.8,0,226.5,0,200.4    c0-26.1,9.2-48.4,27.7-66.9c18.4-18.5,40.6-27.7,66.6-27.7c22.3,0,41.8,6.7,58.6,20.2c2.8,2.3,5.5,4.8,8.1,7.5    c1.1,1.1,4.2,4.6,9.4,10.5l-17.2,17.4L62.9,251.8z M120.2,145.6c-3.9-3-12.5-4.5-26-4.5c-16.2,0-30.1,5.8-41.7,17.3    C41,170,35.3,184,35.3,200.4c0,13.4,1.5,22.1,4.5,26L120.2,145.6z"/>
		<path fill="#0078DC" d="M274.1,292.8c-21.5,0-38.9-6.6-52-19.7c-13.1-13.2-19.9-29.6-20.2-49.4V119.7h34.5v102.5    c0,9.8,3.6,18.3,10.8,25.4c7.2,7.1,16.1,10.6,26.8,10.6c9.8,0,18.4-3.5,25.6-10.5c7.2-7,10.8-15.5,10.8-25.5V119.7h34.3v103.9    c-0.3,19.8-7,36.3-20,49.4C311.5,286.2,294.7,292.8,274.1,292.8z"/>
		<path fill="#0078DC" d="M411.6,142.8c12.8-17.4,28.5-26.5,47.2-27.4v35.7c-12.5,0.7-22.4,4.7-29.8,12.1    c-11.2,11.1-17,24.2-17.4,39.5v87.8h-34.3V119.7h34.3V142.8z"/>
		<path fill="#0078DC" d="M515.4,56.5c4.7,4.6,7.1,10.3,7.1,17.1c0,6.7-2.4,12.4-7.1,17.1c-4.7,4.6-10.4,7-17.1,7    c-6.5,0-12.1-2.3-16.9-7c-4.7-4.6-7.1-10.3-7.1-17.1c0-6.7,2.4-12.4,7.1-17.1c4.7-4.6,10.4-7,16.9-7    C504.9,49.6,510.6,51.9,515.4,56.5z M515.5,119.7v170.7h-34.3V119.7H515.5z"/>
		<path fill="#0078DC" d="M585.3,269.2v21.2H551V25h34.3v106.5c16.6-17.1,35.8-25.7,57.8-25.7c26.1,0,48.3,9.2,66.7,27.7    c18.4,18.5,27.6,40.8,27.6,66.9c0,26.1-9.2,48.4-27.6,66.9c-18.4,18.5-40.6,27.7-66.7,27.7C621.1,294.9,601.9,286.4,585.3,269.2z     M585.3,187.1v26.7c2.1,10.4,7.4,19.9,15.9,28.4c11.6,11.5,25.6,17.3,41.9,17.3c16.3,0,30.3-5.8,41.8-17.3    c11.5-11.5,17.3-25.4,17.3-41.8c0-16.3-5.8-30.2-17.3-41.8c-11.5-11.6-25.5-17.4-41.8-17.4c-16.3,0-30.3,5.8-41.9,17.4    C592.7,167.1,587.4,176.6,585.3,187.1z"/>
		<path fill="#0078DC" d="M800.1,142.8c12.8-17.4,28.5-26.5,47.2-27.4v35.7c-12.5,0.7-22.4,4.7-29.8,12.1    c-11.2,11.1-17,24.2-17.4,39.5v87.8h-34.3V119.7h34.3V142.8z"/>
		<path fill="#0078DC" d="M1096,165.5v124.9h-34.5V119.7h34.5v19.9c7.2-19.5,21.6-29.2,43.2-29.2c18.4,0,33.1,6.6,44,19.7    c10.9,13.1,16.5,29.6,16.8,49.4v111h-34.3V180.8c0-9.8-3.6-18.3-10.8-25.3c-7.2-7-15.7-10.5-25.7-10.5c-9.8,0-18.3,3.4-25.5,10.3    C1099.8,159.3,1097.2,162.8,1096,165.5z"/>
		<g>
			<animateTransform xmlns="http://www.w3.org/2000/svg" attributeName="transform" attributeType="XML" type="rotate" values="0 944.592 200.365;         10 944.592 200.365;         -5 944.592 200.365;         5 944.592 200.365;         -10 944.592 200.365;         5 944.592 200.365;         -10 944.592 200.365;         10 944.592 200.365;         -5 944.592 200.365;         5 944.592 200.365;         -10 944.592 200.365;         5 944.592 200.365;         0 944.592 200.365;         0 944.592 200.365;         0 944.592 200.365;         0 944.592 200.365;         0 944.592 200.365;         0 944.592 200.365;         0 944.592 200.365;         0 944.592 200.365;         0 944.592 200.365;         0 944.592 200.365;         0 944.592 200.365;         0 944.592 200.365;         0 944.592 200.365;" dur="10s" repeatCount="indefinite"/>
			<polyline fill="#4e4e4e" points="1011.3,133.5 961.6,217.4 877.8,267.2 927.6,183.3 1011.3,133.5    "/>
			<path fill="#0078DC" d="M999.8,178.8c2.6,6.7,3.9,13.8,3.9,21.5c0,16.4-5.8,30.3-17.3,41.8c-11.5,11.5-25.5,17.3-41.8,17.3     c-7.7,0-14.8-1.3-21.4-3.8l-34.8,20.7c16.2,12.4,35,18.6,56.2,18.6c26.1,0,48.3-9.2,66.7-27.7c18.4-18.5,27.6-40.8,27.6-66.9     c0-21.3-6.1-40.1-18.4-56.3L999.8,178.8z"/>
			<path fill="#0078DC" d="M889.3,221.9c-2.6-6.6-3.9-13.8-3.9-21.6c0-16.3,5.8-30.2,17.3-41.8c11.5-11.6,25.5-17.4,41.8-17.4     c7.7,0,14.9,1.3,21.5,3.9l34.8-20.7c-16.2-12.4-34.9-18.6-56.3-18.6c-25.9,0-48.1,9.2-66.6,27.7c-18.4,18.5-27.7,40.8-27.7,66.9     c0,21.3,6.1,40.1,18.4,56.3L889.3,221.9z"/>
		</g>
	</g>
</g>
</svg>