<?xml version="1.0" encoding="UTF-8"?> <svg xmlns="http://www.w3.org/2000/svg" xmlns:xlink="http://www.w3.org/1999/xlink" width="145" height="57.981" viewBox="0 0 145 57.981"><defs><linearGradient id="linear-gradient" x1="0.29" y1="1.156" x2="0.847" y2="0.004" gradientUnits="objectBoundingBox"><stop offset="0" stop-color="#4747f4"></stop><stop offset="0.613" stop-color="#4747f4"></stop><stop offset="0.664" stop-color="#4f50f4"></stop><stop offset="0.75" stop-color="#6569f6"></stop><stop offset="0.858" stop-color="#8a92f9"></stop><stop offset="0.985" stop-color="#bdcbfe"></stop><stop offset="1" stop-color="#c4d3ff"></stop></linearGradient><linearGradient id="linear-gradient-2" x1="-0.298" y1="0.567" x2="1.128" y2="0.418" gradientUnits="objectBoundingBox"><stop offset="0" stop-color="#0d00c6"></stop><stop offset="0.357" stop-color="#0d00c6"></stop><stop offset="0.473" stop-color="#1004c7"></stop><stop offset="0.59" stop-color="#1a10ca"></stop><stop offset="0.707" stop-color="#2c24d0"></stop><stop offset="0.768" stop-color="#3832d4"></stop><stop offset="0.843" stop-color="#514fdb"></stop><stop offset="0.88" stop-color="#6060e0"></stop><stop offset="0.942" stop-color="#8388eb"></stop><stop offset="0.981" stop-color="#9ca5f3"></stop></linearGradient><linearGradient id="linear-gradient-3" x1="0.612" y1="0.908" x2="0.302" y2="0.025" gradientUnits="objectBoundingBox"><stop offset="0" stop-color="#00e0ff"></stop><stop offset="0.045" stop-color="#09e0ff"></stop><stop offset="0.121" stop-color="#22e1ff"></stop><stop offset="0.218" stop-color="#4ce3ff"></stop><stop offset="0.331" stop-color="#86e5ff"></stop><stop offset="0.454" stop-color="#cce9ff"></stop><stop offset="1" stop-color="#cce9ff"></stop></linearGradient><linearGradient id="linear-gradient-4" x1="0.239" y1="0.988" x2="0.783" y2="0.017" gradientUnits="objectBoundingBox"><stop offset="0" stop-color="#c4d3ff"></stop><stop offset="0.004" stop-color="#c1cffe"></stop><stop offset="0.089" stop-color="#8b91ed"></stop><stop offset="0.171" stop-color="#5d5ddf"></stop><stop offset="0.246" stop-color="#3a34d4"></stop><stop offset="0.315" stop-color="#2117cc"></stop><stop offset="0.374" stop-color="#1206c7"></stop><stop offset="0.417" stop-color="#0d00c6"></stop><stop offset="0.43" stop-color="#0c0cc9"></stop><stop offset="0.53" stop-color="#0765df"></stop><stop offset="0.611" stop-color="#03a7f0"></stop><stop offset="0.669" stop-color="#00d0fb"></stop><stop offset="0.699" stop-color="#00e0ff"></stop><stop offset="0.728" stop-color="#14defc"></stop><stop offset="0.787" stop-color="#4adbf5"></stop><stop offset="0.868" stop-color="#9dd7eb"></stop><stop offset="0.973" stop-color="#d0d8fe"></stop><stop offset="1" stop-color="#d0d8fe"></stop></linearGradient></defs><g id="Group_1849" data-name="Group 1849" transform="translate(0 -0.001)"><path id="Path_1056" data-name="Path 1056" d="M150.662,27.754a4.837,4.837,0,1,1,4.806,4.806,4.869,4.869,0,0,1-4.806-4.806m.791,8.517h8.153v30.42h-8.153Z" transform="translate(-86.271 -12.953)" fill="#0d00c5"></path><path id="Path_1057" data-name="Path 1057" d="M195.381,68.124v3.651h-7.727V31.743h8.153V44.762a11.971,11.971,0,0,1,9.186-4.016c8.4,0,13.872,7.057,13.872,15.818s-5.354,15.818-13.75,15.818c-3.651,0-7.483-1.338-9.735-4.259m15.21-11.559c0-4.745-3.164-8.273-7.544-8.273-4.2,0-7.24,3.528-7.24,8.273,0,4.867,3.1,8.274,7.24,8.274,4.38,0,7.544-3.468,7.544-8.274" transform="translate(-107.401 -18.037)" fill="#0d00c5"></path><path id="Path_1058" data-name="Path 1058" d="M272.642,53.491h7.97v4.076a11.348,11.348,0,0,1,9.612-4.685c8.031,0,10.829,5.172,10.829,13.506V83.911H292.9V67.423c0-4.441-1.156-6.814-5.293-6.814-4.076,0-6.813,3.285-6.813,7.909V83.911h-8.153Z" transform="translate(-156.054 -30.173)" fill="#0d00c5"></path><g id="Group_1696" data-name="Group 1696" transform="translate(21.359 10.165)"><path id="Path_1059" data-name="Path 1059" d="M61.451,23.851c-4.809,1-10.125,11.017-11.3,14.332,0,0,8.467-9.463,15.128-7.488,0,0,.87-6.933-3.024-6.932a3.977,3.977,0,0,0-.8.088" transform="translate(-50.148 -23.763)" fill="url(#linear-gradient)"></path></g><g id="Group_1697" data-name="Group 1697" transform="translate(38.41 9.026)"><path id="Path_1060" data-name="Path 1060" d="M97.483,48.135l-.018.041c-.03.074-.061.151-.092.223a28.86,28.86,0,0,1-2.935,5.363l-.083.118-.023.035c-.063.09-.126.176-.189.265-.137.194-.273.386-.409.575q-.155.215-.308.425-.169.23-.336.456c-.113.152-.226.3-.339.452-.092.121-.183.239-.275.358q-.431.561-.859,1.093l-.067.084c-.154.19-.307.375-.46.559l-.158.191q-.232.276-.463.544l-.126.146c-.162.187-.324.373-.485.554v0s14.575-13.442,15.055-26.072c.261-6.859-2.348-10.585-4.786-12.56,3.909,8.863-.252,21.336-2.643,27.149" transform="translate(-89.858 -20.986)" fill="url(#linear-gradient-2)"></path></g><path id="Path_1061" data-name="Path 1061" d="M32.862,51.009h0M0,61.422v.1q0,1.008.1,2.038s.387,4.95,4.526,6.943c.057.028.115.054.174.08.142.064.286.125.437.182.052.02.107.037.161.056q.187.066.383.124l.066.019L5.973,71q.247.066.508.12l.114.021.1.02c.141.025.285.048.432.067.085.011.17.023.257.031.167.018.339.031.514.041.088,0,.176.009.266.011.2.006.4.009.613,0,.086,0,.175-.007.264-.011q.24-.011.488-.03l.149-.012.141-.012c.224-.023.454-.052.689-.086l.239-.038.086-.014q.3-.05.6-.112l.191-.037a16.936,16.936,0,0,0,3.363-1.006l.014,0a8.7,8.7,0,0,0,.972-.436,21.962,21.962,0,0,0,6.136-4.509,51.343,51.343,0,0,0,5.807-6.537,47.535,47.535,0,0,0,4.937-7.457l0,0c-.013.013-7.254,7.061-14.639,8.132v.007c-.07.01-.141.016-.211.025s-.144.018-.216.026q-.28.033-.56.052l-.18.011c-.208.012-.417.017-.624.018h-.107c-.244,0-.488-.01-.73-.028h0c-.095-.006-.19-.012-.285-.021h0c-.1-.01-.2-.025-.307-.039a9.718,9.718,0,0,1-1.35-.272h0c-.092-.026-.186-.049-.279-.078-.256-.08-.51-.168-.762-.271A6.545,6.545,0,0,1,8.861,54.32c-.033-.116-.064-.238-.1-.362h0q-.059-.241-.115-.5h0V53.45q-.086-.409-.152-.863a.1.1,0,0,1,0-.011h0c0-.023-.006-.045-.009-.067h0c-.011-.081-.021-.165-.031-.248-.049-.408-.086-.84-.1-1.3v-.006h0c0-.112,0-.227-.006-.342,0-.091,0-.179,0-.272h0a25.206,25.206,0,0,1,.924-5.785q.234-.767.54-1.577h0l.051-.133h0c.029-.074.06-.149.089-.224.078-.2.154-.393.239-.593q.174-.415.367-.839h0c.032-.07.063-.133.095-.19q.857-1.74,1.745-3.277l0-.009S.027,47.874,0,61.422" transform="translate(0 -21.462)" fill="url(#linear-gradient-3)"></path><g id="Group_1698" data-name="Group 1698" transform="translate(4.222 0.001)"><path id="Path_1062" data-name="Path 1062" d="M40.708,0C35.38.008,24.616,2.407,16.244,19.6a27.366,27.366,0,0,0-1.286,3.379,25.314,25.314,0,0,0-.924,5.8,14.686,14.686,0,0,0,.519,3.994A6.559,6.559,0,0,0,18.3,37.043a10.542,10.542,0,0,0,5.611.579,47.841,47.841,0,0,1,3.136-13c1.108-3.129,5.879-12.209,10.444-14.106a3.818,3.818,0,0,1,.858-.272c.072-.013.144-.024.217-.034a2.585,2.585,0,0,1,2.868,1.3l.017.03c.035.06.069.121.1.184a5.329,5.329,0,0,1,.434,1.216,13.5,13.5,0,0,1,.188,4.172,31.619,31.619,0,0,1-3.625,12.347h0l0,0a47.7,47.7,0,0,1-4.937,7.481A51.454,51.454,0,0,1,27.808,43.5a21.965,21.965,0,0,1-6.136,4.524,8.689,8.689,0,0,1-.972.437l-.014,0a16.9,16.9,0,0,1-3.363,1.01c-3.34.718-5.718.279-7.409-.671L19.5,56.65a12.575,12.575,0,0,0,5.964,1.333h.05c5.346-.01,13.722-2.752,22.923-15.981a30.312,30.312,0,0,0,3.151-5.8C55,27.875,62.032,5.916,44,.347A13.234,13.234,0,0,0,40.762,0Z" transform="translate(-9.913 -0.001)" fill="url(#linear-gradient-4)"></path></g></g></svg> 